<svg
      width="150"
      height="42"
      viewBox="0 0 150 42"
      fill="none"
      xmlns="http://www.w3.org/2000/svg"
    >
      <path
        d="M12.3369 12.541C12.3369 13.3997 12.1357 14.1846 11.7332 14.8957C11.3441 15.5934 10.747 16.1569 9.942 16.5862C9.1504 17.0022 8.17766 17.2101 7.0238 17.2101H5.07163V22H1.12703V7.81152H7.0238C8.16425 7.81152 9.13027 8.01278 9.92187 8.41529C10.7269 8.8178 11.3307 9.3746 11.7332 10.0857C12.1357 10.7968 12.3369 11.6152 12.3369 12.541ZM6.64142 14.0706C7.75503 14.0706 8.31183 13.5607 8.31183 12.541C8.31183 11.5079 7.75503 10.9913 6.64142 10.9913H5.07163V14.0706H6.64142ZM26.6209 7.81152V22H22.6763V16.3045H17.8663V22H13.9217V7.81152H17.8663V13.1448H22.6763V7.81152H26.6209ZM35.6806 22.1409C34.3523 22.1409 33.1314 21.8323 32.0178 21.2151C30.9042 20.5845 30.0187 19.7191 29.3612 18.6189C28.7172 17.5053 28.3952 16.2508 28.3952 14.8554C28.3952 13.4601 28.7172 12.2123 29.3612 11.1121C30.0187 9.99849 30.9042 9.1331 32.0178 8.51591C33.1314 7.89873 34.3523 7.59014 35.6806 7.59014C37.0223 7.59014 38.2433 7.89873 39.3435 8.51591C40.4571 9.1331 41.3359 9.99849 41.9799 11.1121C42.6239 12.2123 42.9459 13.4601 42.9459 14.8554C42.9459 16.2508 42.6239 17.5053 41.9799 18.6189C41.3359 19.7191 40.4571 20.5845 39.3435 21.2151C38.2299 21.8323 37.0089 22.1409 35.6806 22.1409ZM35.6806 18.478C36.6869 18.478 37.4785 18.1493 38.0554 17.4919C38.6458 16.8345 38.941 15.9556 38.941 14.8554C38.941 13.7284 38.6458 12.8429 38.0554 12.1989C37.4785 11.5414 36.6869 11.2127 35.6806 11.2127C34.6609 11.2127 33.8626 11.5414 33.2857 12.1989C32.7088 12.8429 32.4203 13.7284 32.4203 14.8554C32.4203 15.9691 32.7088 16.8546 33.2857 17.512C33.8626 18.156 34.6609 18.478 35.6806 18.478ZM55.4058 7.81152V10.9511H51.6222V22H47.6776V10.9511H43.9343V7.81152H55.4058ZM63.6677 22.1409C62.3394 22.1409 61.1184 21.8323 60.0048 21.2151C58.8912 20.5845 58.0057 19.7191 57.3482 18.6189C56.7042 17.5053 56.3822 16.2508 56.3822 14.8554C56.3822 13.4601 56.7042 12.2123 57.3482 11.1121C58.0057 9.99849 58.8912 9.1331 60.0048 8.51591C61.1184 7.89873 62.3394 7.59014 63.6677 7.59014C65.0094 7.59014 66.2303 7.89873 67.3305 8.51591C68.4441 9.1331 69.3229 9.99849 69.9669 11.1121C70.611 12.2123 70.933 13.4601 70.933 14.8554C70.933 16.2508 70.611 17.5053 69.9669 18.6189C69.3229 19.7191 68.4441 20.5845 67.3305 21.2151C66.2169 21.8323 64.9959 22.1409 63.6677 22.1409ZM63.6677 18.478C64.6739 18.478 65.4655 18.1493 66.0425 17.4919C66.6328 16.8345 66.928 15.9556 66.928 14.8554C66.928 13.7284 66.6328 12.8429 66.0425 12.1989C65.4655 11.5414 64.6739 11.2127 63.6677 11.2127C62.648 11.2127 61.8496 11.5414 61.2727 12.1989C60.6958 12.8429 60.4073 13.7284 60.4073 14.8554C60.4073 15.9691 60.6958 16.8546 61.2727 17.512C61.8496 18.156 62.648 18.478 63.6677 18.478Z"
        fill="black"
      />
      <path
        d="M82.3262 7.81152V10.9511H76.6508V13.4467H80.8369V16.4454H76.6508V22H72.7062V7.81152H82.3262ZM87.9321 7.81152V22H83.9875V7.81152H87.9321ZM103.32 22H99.3758L94.123 14.0706V22H90.1784V7.81152H94.123L99.3758 15.8416V7.81152H103.32V22ZM111.182 7.81152C112.672 7.81152 113.973 8.1134 115.087 8.71717C116.214 9.30752 117.079 10.1394 117.683 11.2127C118.287 12.2861 118.589 13.5137 118.589 14.8957C118.589 16.2642 118.28 17.4852 117.663 18.5585C117.059 19.6319 116.194 20.4772 115.067 21.0944C113.953 21.6981 112.658 22 111.182 22H105.567V7.81152H111.182ZM110.881 18.5183C112.034 18.5183 112.94 18.203 113.597 17.5724C114.255 16.9418 114.584 16.0496 114.584 14.8957C114.584 13.7284 114.255 12.8295 113.597 12.1989C112.94 11.5549 112.034 11.2329 110.881 11.2329H109.512V18.5183H110.881ZM124.311 10.9712V13.2857H128.84V16.2844H124.311V18.8403H129.443V22H120.367V7.81152H129.443V10.9712H124.311ZM138.577 22L135.76 16.7674H135.337V22H131.392V7.81152H137.611C138.752 7.81152 139.718 8.01278 140.509 8.41529C141.301 8.80438 141.898 9.34777 142.301 10.0455C142.703 10.7297 142.904 11.5012 142.904 12.3599C142.904 13.3259 142.636 14.1779 142.099 14.9158C141.576 15.6403 140.805 16.1569 139.785 16.4655L142.985 22H138.577ZM135.337 14.0706H137.289C137.826 14.0706 138.228 13.9431 138.497 13.6882C138.765 13.4332 138.899 13.0643 138.899 12.5813C138.899 12.1251 138.758 11.7695 138.477 11.5146C138.208 11.2463 137.813 11.1121 137.289 11.1121H135.337V14.0706Z"
        fill="#2A73FF"
      />
    </svg>