<svg width="238" height="214" viewBox="0 0 238 214" fill="none" xmlns="http://www.w3.org/2000/svg">
<path d="M90.4471 22.6022C107.21 32.4539 126.548 37.0273 145.944 35.7272C196.662 32.4646 228.3 68.0073 233.919 85.7787C240.446 106.426 236.332 129.508 225.786 148.426C215.239 167.344 198.817 182.422 180.747 194.32C166.616 203.619 150.925 211.277 134.143 213.095C117.721 214.865 101.264 210.965 85.2825 206.773C64.7323 201.387 43.9381 195.33 26.0651 183.894C11.4522 174.568 -1.92707 158.797 1.08904 141.745C3.66459 127.189 17.4234 116.478 19.7482 101.875C23.0015 81.4308 3.04103 64.3649 0.37059 43.8329C-2.75396 19.889 14.4277 0.137062 30.8706 0.00140291C47.9573 -0.147822 71.8693 11.6342 90.4471 22.6022Z" fill="url(#paint0_linear_541_236)"/>
<defs>
<linearGradient id="paint0_linear_541_236" x1="31.1303" y1="75.0717" x2="325.031" y2="215.56" gradientUnits="userSpaceOnUse">
<stop stop-color="#C43CFF"/>
<stop offset="1" stop-color="#6106E6"/>
</linearGradient>
</defs>
</svg>
