<svg width="451" height="154" viewBox="0 0 451 154" fill="none" xmlns="http://www.w3.org/2000/svg">
<path d="M136.92 65.4406C123.952 65.4406 115.392 74.0012 115.392 86.2064C115.392 98.3268 123.952 106.887 136.92 106.887C142.43 106.887 146.667 105.786 149.634 103.497V93.5804H149.21C146.498 97.0555 142.684 98.8354 137.768 98.8354C129.546 98.8354 124.461 93.6651 124.461 86.2064C124.461 78.5781 129.546 73.4926 137.768 73.4926C142.599 73.4926 146.413 75.103 149.21 78.6629H149.634V68.9157C146.498 66.6272 142.43 65.4406 136.92 65.4406Z" fill="#528693"/>
<path d="M175.182 65.4406C169.249 65.4406 165.181 67.8138 162.892 72.3908H162.723L162.383 66.2882H154.84V106.04H163.824V88.4101C163.824 78.7476 167.299 74.0012 174.419 74.0012C176.877 74.0012 178.996 74.6792 180.691 75.8659H181.115V66.9662C179.844 66.1187 177.725 65.4406 175.182 65.4406Z" fill="#528693"/>
<path d="M196.77 122.144L220.587 66.2882H211.348L200.16 95.106H199.99L188.887 66.2882H179.225L195.244 104.768L187.531 122.144H196.77Z" fill="#528693"/>
<path d="M235.774 65.4406C226.197 65.4406 219.84 70.5261 219.84 78.3239C219.84 85.8674 223.654 89.0882 233.994 89.9358C240.436 90.4443 242.216 91.6309 242.216 94.2584C242.216 97.1402 239.334 99.0049 234.672 99.0049C228.57 99.0049 223.739 97.1402 220.433 93.5804H220.009V102.989C223.315 105.531 228.485 106.887 235.096 106.887C245.013 106.887 251.031 102.056 251.031 94.2584C251.031 86.2064 246.878 82.3075 236.283 81.7142C230.435 81.3752 228.655 80.3581 228.655 78.0696C228.655 75.2726 231.706 73.3231 236.029 73.3231C241.199 73.3231 245.352 74.764 248.064 77.561H248.488V68.3224C245.606 66.4577 240.945 65.4406 235.774 65.4406Z" fill="#528693"/>
<path d="M278.218 96.5469H277.794C276.184 98.3268 274.234 98.9201 272.115 98.9201C268.216 98.9201 265.928 96.3774 265.928 92.0547V74.0859H278.048V66.2882H265.928V55.3543H258.469L257.198 66.2882H249.908V74.0859H256.943V92.3937C256.943 101.802 261.775 106.887 270.759 106.887C273.895 106.887 276.353 106.379 278.218 105.447V96.5469Z" fill="#528693"/>
<path d="M321.697 106.04V66.2882H314.238L313.899 71.967H313.729C310.848 67.8986 305.932 65.4406 299.49 65.4406C288.132 65.4406 279.826 74.1707 279.826 86.2064C279.826 98.2421 288.132 106.887 299.49 106.887C305.932 106.887 310.932 104.429 313.814 100.361H313.984L314.238 106.04H321.697ZM300.931 98.8354C293.811 98.8354 288.895 93.5804 288.895 86.2064C288.895 78.6629 293.811 73.4926 300.931 73.4926C308.051 73.4926 312.967 78.6629 312.967 86.2064C312.967 93.5804 308.051 98.8354 300.931 98.8354Z" fill="#528693"/>
<path d="M328.379 106.04H337.364V46.709H328.379V106.04Z" fill="#528693"/>
<path d="M344.099 106.04H353.084V46.709H344.099V106.04Z" fill="#528693"/>
<path d="M364.312 48.1499C360.921 48.1499 358.633 50.5231 358.633 53.9134C358.633 57.3038 360.921 59.5923 364.312 59.5923C367.787 59.5923 370.075 57.3038 370.075 53.9134C370.075 50.5231 367.787 48.1499 364.312 48.1499ZM359.819 66.2882V106.04H368.804V66.2882H359.819Z" fill="#528693"/>
<path d="M373.842 106.04H408.678V98.2421H385.963L408.254 73.4926V66.2882H375.114V74.0859H396.134L373.842 98.8354V106.04Z" fill="#528693"/>
<path d="M450.762 88.9187V84.5112C450.762 72.8993 442.964 65.4406 430.674 65.4406C418.554 65.4406 409.993 74.0012 409.993 86.2064C409.993 98.5811 419.317 106.887 433.217 106.887C439.489 106.887 444.914 105.362 448.304 102.734V93.8346H447.88C444.32 97.225 439.404 99.0049 433.556 99.0049C425.673 99.0049 420.249 95.2755 419.147 88.9187H450.762ZM430.928 73.3231C437.116 73.3231 441.693 76.7982 442.456 82.2227H419.147C420.249 76.883 425.25 73.3231 430.928 73.3231Z" fill="#528693"/>
<path d="M82.2716 67.464L60.1585 153.064L31.6102 134.852L53.7254 0.707031L85.9891 53.112L82.2716 67.464Z" fill="#BFF6F8"/>
<path d="M21.1037 70.0516L13.4854 123.273L9.19664 120.542L0.761963 58.6455L21.1037 70.0516Z" fill="#DFFAFB"/>
<path d="M45.263 34.6563L29.0225 133.193L16.1008 124.946L31.9534 14.2017L45.263 34.6563Z" fill="#CFF8FA"/>
<path d="M103.442 63.6182L85.1449 134.137L73.0226 144.173L63.3601 151.977L84.0173 72.0102L103.442 63.6182Z" fill="#ACF3F6"/>
</svg>
